<?xml version="1.0" standalone="no"?>
<!DOCTYPE svg PUBLIC "-//W3C//DTD SVG 20010904//EN"
 "http://www.w3.org/TR/2001/REC-SVG-20010904/DTD/svg10.dtd">
<svg version="1.0" xmlns="http://www.w3.org/2000/svg"
 width="236.000000pt" height="236.000000pt" viewBox="0 0 236.000000 236.000000"
 preserveAspectRatio="xMidYMid meet">
<metadata>
Created by potrace 1.11, written by Peter Selinger 2001-2013
</metadata>
<g transform="translate(0.000000,236.000000) scale(0.100000,-0.100000)"
fill="#000000" stroke="none">
<path d="M1604 2057 c-188 -250 -555 -871 -603 -1019 -13 -40 -22 -82 -25
-112 -1 -14 14 -27 52 -47 30 -15 63 -36 74 -46 20 -18 21 -17 72 38 56 59
110 162 190 356 138 337 328 895 308 907 -4 2 -35 -33 -68 -77z"/>
<path d="M395 1504 c-148 -106 -292 -209 -320 -229 -27 -20 -57 -40 -65 -45
-10 -7 -11 -13 -4 -17 5 -5 26 -20 45 -34 48 -37 547 -392 567 -404 10 -5 19
-13 22 -17 3 -3 12 -8 20 -10 11 -2 14 20 15 133 l0 136 -137 98 c-76 54 -138
101 -138 104 1 3 61 49 135 101 74 52 136 102 137 110 5 19 2 260 -3 264 -2 1
-125 -84 -274 -190z"/>
<path d="M1674 1553 l1 -137 30 -21 c17 -11 79 -55 138 -99 l108 -78 -43 -31
c-24 -17 -68 -49 -98 -71 -30 -23 -74 -54 -96 -69 l-41 -28 0 -139 c0 -77 1
-140 3 -140 2 0 106 73 231 162 126 89 273 193 328 232 55 38 104 73 109 77 4
4 -120 98 -275 208 -156 111 -291 207 -300 214 -42 33 -79 57 -87 57 -5 0 -9
-62 -8 -137z"/>
<path d="M906 819 c-97 -27 -158 -127 -171 -283 -10 -121 -41 -215 -90 -274
l-28 -34 59 3 c176 7 321 83 383 199 40 74 59 221 37 286 -15 47 -142 116
-190 103z"/>
</g>
</svg>
